HIERARCHY
ROOT Hips
{
    OFFSET 0.0 0.0 0.0
    CHANNELS 6 Xposition Yposition Zposition Zrotation Xrotation Yrotation
    JOINT LeftHipJoint
    {
        OFFSET 0.1 0.0 0.0
        CHANNELS 3 Zrotation Xrotation Yrotation
        JOINT LeftUpLeg
        {
            OFFSET 12.60098823039677 0.0 0.0
            CHANNELS 3 Zrotation Xrotation Yrotation
            JOINT LeftLeg
            {
                OFFSET 0.0 0.0 -43.848094024322
                CHANNELS 3 Zrotation Xrotation Yrotation
                JOINT LeftFoot
                {
                    OFFSET 0.0 0.0 -41.49680576734609
                    CHANNELS 3 Zrotation Xrotation Yrotation
                    End Site
                    {
                        OFFSET 0.0 -0.1 0.0
                    }
                }
            }
        }
    }
    JOINT LowerBack
    {
        OFFSET 0.0 0.0 0.1
        CHANNELS 3 Zrotation Xrotation Yrotation
        JOINT Spine
        {
            OFFSET 0.0 0.0 23.561185064889678
            CHANNELS 3 Zrotation Xrotation Yrotation
            JOINT Spine1
            {
                OFFSET 0.0 0.0 25.034926848338632
                CHANNELS 3 Zrotation Xrotation Yrotation
                JOINT LeftShoulder
                {
                    OFFSET 0.1 0.0 0.0
                    CHANNELS 3 Zrotation Xrotation Yrotation
                    JOINT LeftArm
                    {
                        OFFSET 13.958382899556433 0.0 0.0
                        CHANNELS 3 Zrotation Xrotation Yrotation
                        JOINT LeftForeArm
                        {
                            OFFSET 26.080540266324537 0.0 0.0
                            CHANNELS 3 Zrotation Xrotation Yrotation
                            JOINT LeftHand
                            {
                                OFFSET 21.57853831989236 0.0 0.0
                                CHANNELS 3 Zrotation Xrotation Yrotation
                                End Site
                                {
                                    OFFSET 0.1 0.0 0.0
                                }
                            }
                        }
                    }
                }
                JOINT Neck
                {
                    OFFSET 0.0 0.0 0.1
                    CHANNELS 3 Zrotation Xrotation Yrotation
                    JOINT Neck1
                    {
                        OFFSET 0.0 0.0 9.669944494068993
                        CHANNELS 3 Zrotation Xrotation Yrotation
                        End Site
                        {
                            OFFSET 0.0 0.0 10.844757325542927
                        }
                    }
                }
                JOINT RightShoulder
                {
                    OFFSET -0.1 0.0 0.0
                    CHANNELS 3 Zrotation Xrotation Yrotation
                    JOINT RightArm
                    {
                        OFFSET -13.958382899556433 0.0 0.0
                        CHANNELS 3 Zrotation Xrotation Yrotation
                        JOINT RightForeArm
                        {
                            OFFSET -26.080540266324537 0.0 0.0
                            CHANNELS 3 Zrotation Xrotation Yrotation
                            JOINT RightHand
                            {
                                OFFSET -21.57853831989236 0.0 0.0
                                CHANNELS 3 Zrotation Xrotation Yrotation
                                End Site
                                {
                                    OFFSET -0.1 0.0 0.0
                                }
                            }
                        }
                    }
                }
            }
        }
    }
    JOINT RightHipJoint
    {
        OFFSET -0.1 0.0 0.0
        CHANNELS 3 Zrotation Xrotation Yrotation
        JOINT RightUpLeg
        {
            OFFSET -12.60098823039677 0.0 0.0
            CHANNELS 3 Zrotation Xrotation Yrotation
            JOINT RightLeg
            {
                OFFSET 0.0 0.0 -43.848094024322
                CHANNELS 3 Zrotation Xrotation Yrotation
                JOINT RightFoot
                {
                    OFFSET 0.0 0.0 -41.49680576734609
                    CHANNELS 3 Zrotation Xrotation Yrotation
                    End Site
                    {
                        OFFSET 0.0 -0.1 0.0
                    }
                }
            }
        }
    }
}
MOTION
Frames: 7
Frame Time: 0.016666666666666666
0.0 0.0 92.21006332850415 0 -90 0 0 0 0 0 0 0 0 0 0 0 0 0 0 0 0 0 0 0 0 0 0 0 0 0 0 0 0 0 0 0 0 0 0 0 0 0 0 0 0 0 0 0 0 0 0 0 0 0 0 0 0 0 0 0 0 0 0 0 0 0 0 0 0
0.0 0.0 92.21006332850415 11.25258234072481 -52.872317995332075 3.78647574898497 0.0 0.0 -1.987846675914698e-16 16.871117393641278 -57.16422702966056 9.799753127876464 -11.490785991398953 48.360824060778654 28.52369347056529 0.0 3.1805546814635168e-15 0.0 0.0 0.0 -1.987846675914698e-16 -1.0523449862651577 5.605219772823589 -0.8534908781515631 -7.034494602804085 -8.481215823154894e-15 2.753432251289622e-16 0.0 0.0 -1.9878466759146985e-16 -24.449733754880953 -8.715115652118458 43.55799591563689 -51.36059618959998 -1.4441811379591955e-14 -1.400254288861377e-14 0.0 0.0 1.5902773407317584e-15 0.0 0.0 -1.9878466759146985e-16 15.223308694270912 -17.250602385814062 0.16186099446331462 0.0 0.0 -1.9878466759146985e-16 -25.33142495029227 -32.350319762990694 -56.496730183195204 67.11505215948696 -7.519409656060173e-15 -2.7051329264171946e-15 0.0 0.0 0.0 0.0 0.0 -1.987846675914698e-16 43.32970037447286 -74.75623305100605 36.49691596581781 -10.799210681077161 53.61473279870864 9.914113471879402 0.0 0.0 -9.939233379573489e-17
0.0 0.0 92.21006332850415 11.327426143955982 -53.39351322057545 3.1732521486198886 0.0 0.0 0.0 17.03747043344889 -56.29715517125781 10.049867702798073 -11.899505056938553 48.98204433028065 29.476067523595088 1.5902773407317582e-15 -1.987846675914698e-16 -1.9878466759146976e-15 0.0 0.0 0.0 -1.2023197810642847 6.1333138811867745 -0.42275861103037177 -6.536692856974516 -3.599879928233097e-15 1.58640428351488e-15 0.0 0.0 0.0 -23.61900052958709 -9.428391810858521 43.62292090040909 -53.250834739307784 -2.8582605102771414e-15 1.2798481325752742e-14 0.0 0.0 1.5902773407317584e-15 0.0 0.0 0.0 13.901749542479486 -17.341481717881983 0.47657416015491344 0.0 0.0 0.0 -26.589760897191802 -33.51231898986412 -56.673049848075806 68.08927219534169 -1.291174939638073e-14 -1.0588525587404814e-14 0.0 0.0 0.0 0.0 0.0 0.0 43.11079315330592 -74.06459147070093 36.660343884547224 -9.786931356578016 51.963599775977336 8.75754628183142 0.0 0.0 -1.987846675914698e-16
0.0 0.0 92.21006332850415 14.375543089498656 -53.832326054812704 4.825267908333655 -7.951386703658792e-16 -1.1034765745125397e-32 1.5902773407317584e-15 17.83090597863473 -53.61159681070539 11.97070613581514 -11.820182422546072 49.84260174614199 28.702980286909458 0.0 0.0 3.975693351829396e-16 -7.951386703658792e-16 -1.1034765745125397e-32 1.5902773407317584e-15 -1.8401243952296191 8.103909132706193 -0.21206793654650397 -6.697464811246263 -1.3255457948924222e-14 2.088144950257091e-17 0.0 0.0 9.93923337957349e-17 -22.394307880675562 -11.441402648881652 40.506555599489154 -56.398492933418616 2.8030535865752896e-15 1.5029366828203039e-15 0.0 0.0 2.3854160110976376e-15 0.0 0.0 9.93923337957349e-17 14.386423273207122 -18.738532176170025 2.280428833947215 0.0 0.0 9.93923337957349e-17 -29.60563099382711 -35.838008407333106 -56.44574161790069 66.23094584882298 3.395402124993249e-15 2.294616664959109e-15 0.0 0.0 3.1805546814635168e-15 -7.951386703658792e-16 -1.1034765745125397e-32 1.5902773407317584e-15 43.6547360665698 -71.91835536851573 38.76277010536417 -6.845714425447029 46.98833746075763 7.303733525792543 0.0 0.0 -9.93923337957349e-17
0.0 0.0 92.21006332850415 14.280063461638177 -54.7867025222028 4.8080273653345715 -7.951386703658792e-16 -6.3611093629270335e-15 1.9878466759146975e-16 15.958918032284659 -51.69322433831767 9.967873863938385 -12.013609797694688 49.581751929880134 29.21147069766072 -1.5902773407317584e-15 -3.3793393490549868e-15 -1.1927080055488188e-15 -7.951386703658792e-16 -6.3611093629270335e-15 1.9878466759146975e-16 -1.7850771562226195 8.167688197811481 -0.533659683032212 -6.392896966342914 -2.2257257933595132e-15 -9.206766537624542e-16 0.0 0.0 -2.981770013872047e-16 -20.568887184264145 -10.759674467509491 40.794032588845056 -60.136439811747735 -8.692203077113485e-15 2.3179797929349573e-15 0.0 0.0 0.0 0.0 0.0 -2.981770013872047e-16 13.197523056562648 -18.531926731830445 2.35896719429118 0.0 0.0 -2.981770013872047e-16 -30.29032612015945 -37.33363190954306 -55.59822732093289 68.98982219839446 2.1472219252375992e-15 1.1548896895128224e-14 -6.361109362927033e-15 -2.648343778830095e-31 4.770832022195274e-15 -7.951386703658792e-16 -6.3611093629270335e-15 1.9878466759146975e-16 37.793428776662175 -70.50884187793221 33.398675028680316 -6.176103610535723 45.44596879352055 5.661169472780339 0.0 0.0 5.963540027744094e-16
0.0 0.0 92.21006332850415 14.293442061376787 -55.541582872404895 4.606972891861563 5.517382872562698e-32 -6.3611093629270335e-15 9.93923337957349e-16 14.934115467124554 -49.848614135282 8.968955660457164 -12.10271280171385 49.186527446084554 29.42236423872711 0.0 0.0 -1.1927080055488188e-15 5.517382872562698e-32 -6.3611093629270335e-15 9.93923337957349e-16 -1.798209602532969 8.219713516695188 -0.5666502779133299 -6.306969085954628 6.5331457938729245e-15 -2.373191018781717e-16 0.0 0.0 -1.987846675914698e-16 -18.713584881852764 -11.12883233566294 39.965677510941724 -63.77467326064195 -2.700572279641224e-15 -1.6801301866858085e-15 2.2069531490250793e-32 -3.1805546814635168e-15 7.951386703658792e-16 0.0 0.0 -1.987846675914698e-16 12.453502255534172 -18.40774577332927 2.3276442566164475 0.0 0.0 -1.987846675914698e-16 -31.12523554262138 -38.46469214852312 -55.50208262825389 69.28995199339244 1.1300703902272284e-15 1.635382316180774e-15 0.0 0.0 -3.1805546814635168e-15 5.517382872562698e-32 -6.3611093629270335e-15 9.93923337957349e-16 36.26481450782901 -69.84703147975823 32.050730305531104 -6.104205694537128 45.52929806203117 4.7631787296115045 0.0 0.0 4.969616689786745e-17
0.0 0.0 92.21006332850415 15.936172202395989 -56.88063844974547 5.955955976990487 7.951386703658794e-16 -6.3611093629270335e-15 2.5842006786891076e-15 14.307297693343491 -48.24403485620486 8.449513716989589 -12.909600196581586 50.5430791617715 29.745947892916497 0.0 0.0 1.5902773407317584e-15 7.951386703658794e-16 -6.3611093629270335e-15 2.5842006786891076e-15 -1.8027318273662507 8.122302725412956 -0.8616982881276964 -6.404167583335766 5.219405421973508e-15 7.8973925688318495e-16 0.0 0.0 -4.969616689786745e-16 -15.375715831616342 -13.125429587356052 40.41114627511383 -68.6754501667434 -1.2962479996247497e-16 1.14669203570256e-14 0.0 0.0 2.3854160110976376e-15 0.0 0.0 -4.969616689786745e-16 12.201980404599347 -17.675764154306645 3.1406585699723224 0.0 0.0 -4.969616689786745e-16 -30.851540188841284 -38.947070575346885 -52.868053650186916 69.57531947858486 -3.4024184288226003e-15 -4.897689097698463e-15 0.0 0.0 -1.5902773407317584e-15 7.951386703658794e-16 -6.3611093629270335e-15 2.5842006786891076e-15 34.566050989629865 -68.78153733441 31.287448971442643 -5.446757772017549 46.29355632744629 2.906528326360652 6.896728590703373e-34 -7.951386703658792e-16 9.93923337957349e-17
